<svg xmlns="http://www.w3.org/2000/svg" id="Layer_1" viewBox="0 0 925.85 368.43"><defs><style>.cls-1{fill:#fff}</style></defs><path d="M1.01 250.21h14.7v63.15h15.15v-63.15h16.2v-13.2h-16.2v-12.9c0-4.2 2.25-6.3 5.85-6.3h10.35v-13.35h-12.9c-12 0-18.45 7.5-18.45 17.85v14.7H1.01v13.2zM133.2 275.11c0-22.05-18.3-39.9-41.1-39.9S51 253.06 51 275.11s18.3 40.05 41.1 40.05 41.1-18 41.1-40.05zm-15.15 0c0 14.85-11.55 26.55-25.95 26.55s-25.95-11.7-25.95-26.55 11.55-26.4 25.95-26.4 25.95 11.7 25.95 26.4zM184.66 250.36v-14.1h-5.25c-8.4 0-14.55 3.9-18.3 10.05v-9.45h-15v76.5h15.15v-43.5c0-11.85 7.2-19.5 17.1-19.5h6.3zM242.22 313.36l-.3-84.75 34.35 84.75h14.25l34.35-84.9-.15 84.9h15.3v-105h-22.05l-34.35 85.05-34.2-85.05h-22.35v105h15.15zM353.24 275.11c0 22.8 17.7 39.9 40.65 39.9 13.95 0 25.35-6.15 33-16.35l-10.95-8.1c-5.7 7.65-13.2 11.25-22.05 11.25-12.9 0-23.25-9.3-25.35-21.75h62.25v-4.95c0-22.8-16.2-39.75-38.25-39.75s-39.3 18.15-39.3 39.75zm39-26.55c11.25 0 20.7 7.8 23.25 19.5h-46.65c2.7-11.7 12.15-19.5 23.4-19.5zM482.21 250.36v-14.1h-5.25c-8.4 0-14.55 3.9-18.3 10.05v-9.45h-15v76.5h15.15v-43.5c0-11.85 7.2-19.5 17.1-19.5h6.3zM502.23 275.26c0-15 11.55-26.55 25.95-26.55 8.85 0 16.5 4.35 21.45 11.1l11.1-7.95c-7.5-10.05-18.15-16.65-32.55-16.65-23.25 0-41.1 17.85-41.1 40.05s17.85 39.9 41.1 39.9c14.4 0 25.05-6.6 32.55-16.5l-11.1-8.1c-4.95 6.9-12.6 11.25-21.45 11.25-14.4 0-25.95-11.85-25.95-26.55zM586.2 267.91c0-11.4 7.8-19.05 18.75-19.05s18 7.5 18 18.6v45.9h15.15v-48.9c0-16.35-11.85-29.25-29.25-29.25-9.15 0-17.25 3.75-22.65 10.05v-36.9h-15.15v105h15.15v-45.45zM650.19 292.21c0 13.35 11.1 22.8 26.1 22.8 10.2 0 18.75-4.2 23.85-11.25 1.95 6 7.35 9.6 14.7 9.6h7.5v-13.35h-3.9c-3 0-4.5-1.5-4.5-4.35v-34.5c0-15.6-11.25-25.65-28.5-25.65-11.4 0-21.45 3.3-29.4 10.05l6.75 10.95c6.45-5.1 13.2-7.35 20.55-7.35 10.05 0 15.75 5.25 15.75 13.95v4.95l-23.85 1.8c-15.9 1.05-25.05 9-25.05 22.35zm14.55-.15c0-6.3 4.35-10.05 12.75-10.65l21.6-1.8v6.3c0 9.6-8.85 17.25-19.8 17.25-8.55 0-14.55-4.5-14.55-11.1zM800.06 264.46c0-16.35-11.85-29.25-29.4-29.25-9.15 0-17.1 3.75-22.5 10.05v-8.4h-15.15v76.5h15.15v-45.45c0-11.4 7.8-19.05 18.75-19.05s18 7.5 18 18.6v45.9h15.15v-48.9zM841.44 313.36h14.55v-13.35h-10.05c-4.65 0-7.5-2.25-7.5-6.45v-43.35h17.55v-13.35h-17.55v-22.5h-15.15v22.5h-14.55v13.35h14.55v46.65c0 9.6 6.45 16.5 18.15 16.5zM894.48 315.01c17.1 0 28.05-9.9 28.05-23.1 0-10.95-7.05-18.3-21.15-21.9l-13.2-3.45c-7.2-1.8-10.95-5.1-10.95-9.9 0-5.4 4.35-9.3 11.7-9.3 7.8 0 15.45 4.5 17.25 13.2h14.55c-2.1-14.4-13.8-25.35-31.65-25.35-15.45 0-26.7 9-26.7 22.95 0 10.95 7.05 18.15 20.7 21.6l14.1 3.45c7.2 1.95 10.5 5.25 10.5 9.9 0 5.85-5.1 9.75-13.35 9.75-9.45 0-16.95-4.5-18.75-13.2h-14.55c2.7 14.55 14.85 25.35 33.45 25.35zM341.28 58.36h73.21v17.93h-53.44v25.64h52.01v17.39h-52.01v26h53.44v17.93h-73.21V58.36zm272.14 106.87c22.44 0 35.09-10.76 35.09-25.64 0-10.58-7.48-18.47-23.16-21.88l-16.57-3.41c-9.62-1.79-12.65-3.59-12.65-7.17 0-4.66 4.63-7.53 13.18-7.53 9.26 0 16.03 2.51 17.99 11.12h19.41c-1.07-16.14-12.65-26.9-36.16-26.9-20.3 0-34.56 8.43-34.56 24.74 0 11.3 7.84 18.65 24.76 22.23l18.52 4.3c7.3 1.43 9.26 3.41 9.26 6.45 0 4.84-5.52 7.89-14.43 7.89-11.22 0-17.63-2.51-20.13-11.12h-19.59c2.85 16.14 14.79 26.9 39.01 26.9l.03.02zm-44.26-19.54h-14.61c-4.45 0-7.3-1.97-7.3-6.1v-36.22h21.91V85.79h-21.91V63.74h-19.6v22.05h-14.78v17.57h14.78v41.24c0 10.4 7.3 18.65 20.48 18.65h21.02v-17.57zM504.6 85.81v77.45h-19.41v-6.99c-6.77 5.74-15.32 8.97-24.58 8.97-22.98 0-40.97-18.11-40.97-40.7s17.99-40.7 40.97-40.7c9.26 0 17.81 3.23 24.58 8.96v-6.99h19.41zm-19.06 38.73c0-13.27-10.33-23.67-23.34-23.67s-23.33 10.4-23.33 23.67 10.51 23.67 23.33 23.67 23.34-10.4 23.34-23.67zM42.24 150.96c14.44 0 25.6-11.24 25.6-27.87V58.36h15.63v104.89H67.99v-9.74c-7 7.34-16.67 11.54-27.54 11.54-22.32-.01-39.44-16.34-39.44-41.06V58.36h15.63v64.73c0 16.93 11.01 27.87 25.6 27.87zm52.84 12.29h14.89v-9.59c6.85 7.04 16.52 11.39 27.09 11.39 22.33 0 39.89-17.83 39.89-39.86s-17.57-40.01-39.89-40.01c-10.57 0-20.09 4.35-26.94 11.39V58.36H95.09v104.89zm40.93-11.54c-14.59 0-26.2-11.84-26.2-26.52s11.76-26.52 26.2-26.52 26.05 11.69 26.05 26.52-11.76 26.52-26.05 26.52zm85.89-66.38c-22.18 0-39 18.13-39 39.71 0 22.77 17.57 39.86 40.34 39.86 13.84 0 25.16-6.14 32.75-16.33l-10.87-8.09c-5.66 7.64-13.1 11.24-21.88 11.24-12.8 0-23.07-9.29-25.16-21.73h61.77v-4.95c0-22.77-16.08-39.71-37.96-39.71h.01zM198.38 118c2.68-11.69 12.06-19.48 23.22-19.48s20.54 7.79 23.07 19.48h-46.29zm108.06-17.68V86.24h-5.21c-8.34 0-14.44 3.9-18.16 10.04v-9.44h-14.89v76.41h15.03V119.8c0-11.84 7.15-19.48 16.97-19.48h6.26z" class="cls-1"/></svg>